<svg width="735" height="811" viewBox="0 0 735 811" fill="none" xmlns="http://www.w3.org/2000/svg">
<rect x="10" y="358" width="203" height="95" rx="40" fill="#58A700" stroke="white" stroke-width="20"/>
<path d="M311 10C365.449 10 417.05 51.402 455.625 123.486C493.975 195.149 518 294.838 518 405.5C518 516.162 493.975 615.851 455.625 687.514C417.05 759.598 365.449 801 311 801C256.551 801 204.95 759.598 166.375 687.514C128.025 615.851 104 516.162 104 405.5C104 294.838 128.025 195.149 166.375 123.486C204.95 51.402 256.551 10 311 10Z" fill="#58A700" stroke="white" stroke-width="20"/>
<path d="M428.67 119C467.012 119 504.029 148.202 532.049 200.562C559.843 252.499 577.339 324.938 577.339 405.5C577.339 486.062 559.843 558.501 532.049 610.438C504.029 662.798 467.012 692 428.67 692C390.328 692 353.31 662.798 325.29 610.438C297.496 558.501 280 486.062 280 405.5C280 324.938 297.496 252.499 325.29 200.562C353.31 148.202 390.328 119 428.67 119Z" fill="#58A700" stroke="white" stroke-width="20"/>
<path d="M527.958 218C551.744 218 575.584 236.177 594.064 270.711C612.32 304.824 623.916 352.638 623.916 406C623.916 459.362 612.32 507.176 594.064 541.289C575.584 575.823 551.744 594 527.958 594C504.172 594 480.332 575.823 461.852 541.289C443.596 507.176 432 459.362 432 406C432 352.638 443.596 304.824 461.852 270.711C480.332 236.177 504.172 218 527.958 218Z" fill="#58A700" stroke="white" stroke-width="20"/>
<rect x="572" y="358" width="153" height="95" rx="40" fill="#58A700" stroke="white" stroke-width="20"/>
</svg>
