<svg width="46" height="46" viewBox="0 0 46 46" fill="none" xmlns="http://www.w3.org/2000/svg">
<path d="M18.819 24.8864L26.7262 20.3212" stroke="#AFAFAF" stroke-width="2.73913"/>
<path d="M29.3997 10.3448C28.2651 8.37964 25.7523 7.70633 23.7871 8.84092C21.822 9.9755 21.1486 12.4883 22.2832 14.4535L30.0441 27.8957C31.1787 29.8609 33.6915 30.5342 35.6567 29.3996C37.6218 28.265 38.2952 25.7522 37.1606 23.787L29.3997 10.3448Z" fill="#5ACD05"/>
<path d="M15.9568 18.1044C14.8222 16.1393 12.3094 15.466 10.3442 16.6006C8.37909 17.7351 7.70577 20.248 8.84036 22.2131L16.6012 35.6554C17.7358 37.6205 20.2487 38.2938 22.2138 37.1592C24.179 36.0247 24.8523 33.5118 23.7177 31.5467L15.9568 18.1044Z" fill="#5ACD05"/>
<path d="M36.7594 10.3115C35.6249 8.34632 33.112 7.673 31.1469 8.80759C29.1817 9.94217 28.5084 12.455 29.643 14.4202L33.7517 21.5366C34.8863 23.5018 37.3991 24.1751 39.3643 23.0405C41.3294 21.9059 42.0027 19.3931 40.8681 17.4279L36.7594 10.3115Z" fill="#5ACD05"/>
<path d="M12.2475 24.4644C11.1129 22.4993 8.60005 21.826 6.63489 22.9605C4.66974 24.0951 3.99642 26.608 5.13101 28.5731L9.2397 35.6896C10.3743 37.6548 12.8871 38.3281 14.8523 37.1935C16.8174 36.0589 17.4908 33.5461 16.3562 31.5809L12.2475 24.4644Z" fill="#5ACD05"/>
<path opacity="0.3" d="M9.78655 25.744C9.40836 25.089 8.57075 24.8645 7.91569 25.2427C7.26064 25.6209 7.0362 26.4585 7.4144 27.1136L8.32744 28.695C8.70564 29.3501 9.54325 29.5745 10.1983 29.1963C10.8534 28.8181 11.0778 27.9805 10.6996 27.3254L9.78655 25.744Z" fill="white"/>
<path opacity="0.3" d="M35.3521 12.0473C34.9739 11.3923 34.1363 11.1679 33.4812 11.5461C32.8262 11.9242 32.6018 12.7619 32.9799 13.4169L33.893 14.9984C34.2712 15.6534 35.1088 15.8778 35.7639 15.4996C36.4189 15.1215 36.6433 14.2838 36.2651 13.6288L35.3521 12.0473Z" fill="white"/>
<path opacity="0.3" d="M13.4395 19.3533C13.0613 18.6982 12.2237 18.4738 11.5686 18.852C10.9136 19.2302 10.6892 20.0678 11.0674 20.7228L12.4369 23.095C12.8151 23.75 13.6527 23.9745 14.3078 23.5963C14.9628 23.2181 15.1873 22.3805 14.8091 21.7254L13.4395 19.3533Z" fill="white"/>
<path opacity="0.3" d="M27.1336 12.0473C26.7554 11.3923 25.9178 11.1679 25.2627 11.5461C24.6077 11.9242 24.3832 12.7619 24.7614 13.4169L26.131 15.7891C26.5092 16.4441 27.3468 16.6686 28.0019 16.2904C28.6569 15.9122 28.8814 15.0746 28.5032 14.4195L27.1336 12.0473Z" fill="white"/>
</svg>
